<?xml version="1.0" encoding="UTF-8" standalone="no"?>
<svg
   xmlns:dc="http://purl.org/dc/elements/1.1/"
   xmlns:cc="http://creativecommons.org/ns#"
   xmlns:rdf="http://www.w3.org/1999/02/22-rdf-syntax-ns#"
   xmlns:svg="http://www.w3.org/2000/svg"
   xmlns="http://www.w3.org/2000/svg"
   id="svg8"
   version="1.1"
   viewBox="0 0 46.868244 25.236948"
   height="25.236948mm"
   width="46.868244mm">
  <defs
     id="defs2" />
  <metadata
     id="metadata5">
    <rdf:RDF>
      <cc:Work
         rdf:about="">
        <dc:format>image/svg+xml</dc:format>
        <dc:type
           rdf:resource="http://purl.org/dc/dcmitype/StillImage" />
        <dc:title></dc:title>
      </cc:Work>
    </rdf:RDF>
  </metadata>
  <g
     transform="translate(-63.348569,-63.818216)"
     id="layer1">
    <g
       id="g107">
      <path
         id="path86"
         style="font-style:normal;font-variant:normal;font-weight:normal;font-stretch:normal;font-size:19.7556px;line-height:1.25;font-family:'Marker Felt';-inkscape-font-specification:'Marker Felt';stroke-width:0.43294"
         d="m 77.372049,83.749085 q 0.209827,0.358577 0.209827,0.806798 0,0.747034 -0.55954,1.434304 -0.524569,0.687272 -1.258966,0.926323 -0.699425,0.209169 -2.028334,0.209169 -1.328909,0 -1.92342,0.14941 -0.594511,0.14941 -1.363879,0.926323 -0.664455,0.627507 -2.308104,0.836678 -1.014166,0.119522 -2.063305,-0.597627 -1.049138,-0.717154 -1.433822,-1.763001 -0.06994,-0.20917 -0.06994,-0.388458 0,-0.388457 0.489597,-0.866559 0.524569,-0.478103 0.489599,-0.836679 L 64.082966,66.477658 q 0,-0.119522 -0.384684,-0.537865 -0.349713,-0.44822 -0.349713,-0.747034 0,-0.41834 0.524569,-0.806796 0.734397,-0.567747 2.098276,-0.567747 1.154053,0 2.203191,0.41834 1.084108,0.418338 1.363878,0.986084 0.17486,0.328695 0.17486,0.567747 0,0.268931 -0.31474,0.537864 -0.314743,0.268932 -0.279771,0.507983 l 1.258967,16.494512 2.098276,-0.717152 q 0.664453,-0.268933 1.328907,-0.507984 0.699425,-0.268932 1.154052,-0.268932 1.258966,0 2.413019,1.912407 z" />
      <path
         id="path88"
         style="font-style:normal;font-variant:normal;font-weight:normal;font-stretch:normal;font-size:19.7556px;line-height:1.25;font-family:'Marker Felt';-inkscape-font-specification:'Marker Felt';stroke-width:0.264583"
         d="m 82.422467,72.798546 q 0.138289,2.64725 -0.908758,5.472301 -1.047046,2.805295 -2.232382,3.160896 -0.474135,0.158045 -0.928514,0.118534 -0.474134,-0.05927 -0.928513,-0.118534 -4.069653,-0.474134 -4.484521,-8.633197 -0.118534,-2.212627 0.711202,-4.741344 0.770468,-2.350917 1.600203,-2.904073 0.197556,-0.13829 0.434623,-0.13829 0.177801,0 0.553157,0.118534 0.375357,0.09878 0.572913,0.09878 0.237067,0 0.84949,-0.09878 0.63218,-0.118534 0.928514,-0.118534 0.276578,0 0.454378,0.07902 3.062118,1.244603 3.378208,7.704684 z m -2.667006,0 q -0.197556,-2.46945 -0.533401,-3.714053 -0.553157,-2.094094 -1.639715,-2.094094 -0.296334,0 -0.632179,0.158045 -0.31609,0.158045 -0.849491,2.034827 -0.553157,2.054582 -0.553157,3.615275 0,2.034827 0.711202,4.286965 0.711201,2.232383 1.363136,2.232383 0.612424,0 1.363137,-2.015071 0.790224,-2.094094 0.790224,-3.970876 0,-0.276578 -0.01976,-0.533401 z" />
      <path
         id="path90"
         style="font-style:normal;font-variant:normal;font-weight:normal;font-stretch:normal;font-size:19.7556px;line-height:1.25;font-family:'Marker Felt';-inkscape-font-specification:'Marker Felt';stroke-width:0.264583"
         d="m 93.34022,75.287751 q -0.276578,0.355601 -0.928513,0.375357 -0.553157,0.01976 -1.086558,0.01976 -0.256823,2.054583 -0.968025,3.733809 -0.750712,1.738493 -1.600203,2.094093 -0.138289,0.05927 -0.31609,0.05927 -0.790224,0 -1.797759,-0.889002 -1.106314,-0.98778 -1.817516,-2.508961 -0.809979,-1.817515 -0.809979,-3.911609 0.01975,-3.45723 0.968024,-6.10448 1.126069,-3.160896 3.062118,-3.180652 1.442159,-0.01976 2.350917,1.817515 0.691446,1.363137 0.968024,3.516497 0.31609,0.395112 0.31609,0.869247 0,0.49389 -0.31609,0.809979 -0.31609,0.296334 -0.790224,0.296334 -0.533401,0 -1.145825,-0.256823 -0.592668,-0.276578 -0.790224,-0.572912 -0.118533,-0.1778 -0.118533,-0.375356 0,0.09878 0.158044,-0.770469 -0.276578,-2.291649 -0.632179,-2.291649 -0.316089,0 -0.809979,2.173116 -0.533402,2.271894 -0.533402,4.030142 0,1.244603 0.395112,2.825051 0.414868,1.560692 0.711202,1.560692 0.276578,0 0.632179,-0.849491 0.355601,-0.84949 0.474135,-1.718737 -0.474135,-0.217311 -0.948269,-0.750713 -0.533401,-0.592668 -0.533401,-1.086558 0,-0.316089 0.276578,-0.533401 0.276578,-0.237067 0.928513,-0.256823 1.758249,-0.03951 1.936049,-0.05927 0.296334,-0.13829 0.612424,-0.276579 0.335845,-0.158045 0.592668,-0.158045 0.612423,0 1.185336,0.553157 0.592668,0.553157 0.592668,1.165581 0,0.375356 -0.217312,0.651934 z" />
      <path
         id="path92"
         style="font-style:normal;font-variant:normal;font-weight:normal;font-stretch:normal;font-size:19.7556px;line-height:1.25;font-family:'Marker Felt';-inkscape-font-specification:'Marker Felt';stroke-width:0.264583"
         d="m 98.257223,80.937853 q -0.177801,0.49389 -1.027291,0.49389 -0.237068,0 -0.513646,-0.03951 -1.619959,-0.256823 -1.896538,-0.968025 -0.05927,-0.138289 -0.05927,-0.276578 0,-0.414868 0.454378,-0.829735 -0.07902,-2.96334 -0.3556,-12.090427 0.01975,-0.256823 -0.13829,-0.592668 -0.158044,-0.355601 -0.158044,-0.513646 0,-0.355601 0.454378,-0.750713 0.31609,-0.276578 0.889002,-0.276578 0.651935,0 1.382892,0.335845 0.869247,0.414868 0.869247,1.007536 0,0.138289 -0.414868,1.066802 l 0.197556,11.971894 q 0,0.237067 0.177801,0.612423 0.1778,0.355601 0.1778,0.572913 0,0.138289 -0.03951,0.276578 z" />
      <path
         id="path94"
         style="font-style:normal;font-variant:normal;font-weight:normal;font-stretch:normal;font-size:19.7556px;line-height:1.25;font-family:'Marker Felt';-inkscape-font-specification:'Marker Felt';stroke-width:0.264583"
         d="m 110.21551,79.673495 q -0.0395,0.711201 -0.49389,1.205091 -0.45438,0.474135 -1.12607,0.434623 -1.67923,-0.09878 -2.29165,-1.639714 -0.0988,-0.237068 -0.11854,-0.770469 -0.0395,-0.474134 -0.19755,-0.770468 -0.73096,-1.126069 -1.34338,-2.173116 -1.50142,-2.528717 -2.21262,-4.227699 -0.079,2.015072 0.31609,7.586151 0,0.118533 0.19755,0.533401 0.19756,0.414868 0.19756,0.691446 0,0.355601 -0.23707,0.651935 -0.33584,0.434623 -1.00754,0.434623 -0.7112,0 -1.40264,-0.454379 -0.671694,-0.434623 -0.750716,-1.027291 -0.05927,-0.474134 0.256826,-0.730957 0.31609,-0.256823 0.29633,-0.454379 L 99.705533,66.871866 q 0,-0.09878 -0.03951,-0.296334 -0.03951,-0.197556 -0.03951,-0.296334 0,-0.296334 0.296334,-0.474135 0.316093,-0.1778 0.869243,-0.1778 1.48167,0 2.11385,0.770468 0.1778,0.197556 0.1778,0.474135 0,0.118533 -0.0395,0.316089 -0.0395,0.197556 -0.0395,0.276579 0,0.05927 0.0198,0.118533 0.39512,2.015072 4.14867,8.455397 l -0.23706,-9.640733 q 0,-0.1778 -0.13829,-0.395112 -0.13829,-0.217311 -0.13829,-0.335845 0,-0.256823 0.39511,-0.651935 0.21731,-0.237067 0.67169,-0.237067 0.73096,0 1.50143,0.513646 0.77046,0.513645 0.79022,1.106313 0.0198,0.375357 -0.31609,0.592668 -0.31609,0.217312 -0.31609,0.434624 l 0.27658,10.826068 q 0,0.276579 0.27658,0.711202 0.29633,0.414868 0.27658,0.711202 z" />
    </g>
  </g>
</svg>
