<?xml version="1.0" encoding="UTF-8" standalone="no"?>
<svg
   xmlns:dc="http://purl.org/dc/elements/1.1/"
   xmlns:cc="http://creativecommons.org/ns#"
   xmlns:rdf="http://www.w3.org/1999/02/22-rdf-syntax-ns#"
   xmlns:svg="http://www.w3.org/2000/svg"
   xmlns="http://www.w3.org/2000/svg"
   id="svg8"
   version="1.1"
   viewBox="0 0 87.588448 37.175308"
   height="37.175308mm"
   width="87.588448mm">
  <defs
     id="defs2" />
  <metadata
     id="metadata5">
    <rdf:RDF>
      <cc:Work
         rdf:about="">
        <dc:format>image/svg+xml</dc:format>
        <dc:type
           rdf:resource="http://purl.org/dc/dcmitype/StillImage" />
        <dc:title></dc:title>
      </cc:Work>
    </rdf:RDF>
  </metadata>
  <g
     transform="translate(-72.762903,-122.70948)"
     id="layer1">
    <g
       id="g47">
      <path
         id="path14"
         style="font-style:normal;font-variant:normal;font-weight:normal;font-stretch:normal;font-size:19.7556px;line-height:1.25;font-family:'Marker Felt';-inkscape-font-specification:'Marker Felt';stroke-width:0.671005"
         d="m 104.69049,155.90331 q 0.0561,0.26843 0.0561,0.49212 0,1.34205 -1.96392,2.2815 -1.96391,0.89471 -4.096151,0.89471 -1.290564,0 -2.076128,-0.40262 -0.561107,-0.26841 -1.010004,-1.02892 -0.392777,-0.80524 -0.897784,-1.07365 l -12.400679,-6.62088 0.505008,4.11569 q 0.05612,0.31315 0.841677,1.29733 0.841678,0.98418 0.841678,1.65523 0,0.98417 -1.571132,1.83416 -0.953901,0.53681 -2.412809,0.53681 -2.076137,0 -3.871715,-0.89471 -1.963914,-0.89471 -2.356699,-2.2815 -0.05612,-0.26843 -0.05612,-0.44737 0,-0.6263 0.729454,-1.07364 0.785564,-0.49212 0.785564,-0.89473 l -1.795578,-25.49932 q -0.05612,-0.58155 -0.617231,-1.52101 -0.561118,-0.98417 -0.561118,-1.43154 0,-1.16311 1.907804,-1.87888 1.571129,-0.62631 3.198373,-0.62631 1.066124,0 1.851691,0.26841 0.785565,0.22373 1.066124,0.76052 0.280565,0.49209 0.673341,0.49209 0.05612,0.0448 3.422823,-0.98418 3.927827,-1.16314 6.901729,-1.16314 4.320586,0 6.957831,2.41572 0.729444,0.67105 0.729444,1.87891 0,3.2657 -4.713363,9.21553 -4.488923,5.59196 -9.258413,8.94713 l 14.476786,8.05242 q 0.0561,0.0446 2.805587,1.07365 1.57113,0.58157 1.9078,1.61047 z M 89.65258,128.1225 q -1.234454,0 -3.927818,1.87888 -0.561118,0.3579 -4.152277,3.08677 l -0.11222,8.00768 q 3.478933,-3.04203 6.284524,-6.75507 2.805575,-3.7578 2.805575,-5.3683 0,-0.84996 -0.897784,-0.84996 z" />
      <path
         id="path16"
         style="font-style:normal;font-variant:normal;font-weight:normal;font-stretch:normal;font-size:19.7556px;line-height:1.25;font-family:'Marker Felt';-inkscape-font-specification:'Marker Felt';stroke-width:0.264583"
         d="m 104.21453,136.56609 q -0.45438,0.37536 -1.16558,0.37536 -0.29633,0 -0.69144,-0.0593 -0.57292,0.1778 -1.02729,0.3556 -1.10632,0.41487 -1.461918,0.71121 -0.118534,2.05458 0,4.70183 0.118533,-0.079 0.592668,-0.15805 0.23707,-0.41486 0.80998,-0.41486 0.57291,0 1.32362,0.55315 0.77047,0.55316 0.77047,1.08656 0,0.13829 -0.0593,0.27658 -0.23707,0.59267 -0.73096,0.75071 -0.29634,0.0988 -0.86925,0.0593 -0.57291,-0.0593 -0.73095,0.0197 -0.45438,0.21732 -1.106318,0.51365 0,1.778 0.118533,2.29165 0.829735,-0.19756 1.382895,-0.47414 0.0988,-0.13828 0.19755,-0.25682 0.19756,-0.21731 0.7112,-0.1778 0.55316,0.0395 1.14583,0.63218 0.59267,0.59267 0.59267,1.20509 0,0.5334 -0.45438,0.79023 -0.45438,0.25682 -1.52118,0.1778 l -1.85703,0.92851 q -0.11853,0.0593 -0.513644,0.39511 -0.296334,0.25682 -0.533402,0.25682 -0.07902,0 -0.1778,-0.0198 -1.047047,-0.31609 -1.896538,-1.63972 -0.05927,-0.0988 -0.05927,-0.23706 0,-0.0593 0.217311,-0.79023 -0.217311,-5.74888 -0.07902,-12.24847 -0.138289,-0.19755 -0.138289,-0.39511 0,-0.65194 1.205091,-0.82974 0.256823,-0.0395 0.651935,0.13829 0.256823,0.13829 0.49389,0.25683 l 2.370676,-0.75072 q 0.079,-0.0197 0.45438,-0.23706 0.25682,-0.15805 0.59266,-0.15805 0.15805,0 0.37536,0.0395 0.43462,0.079 0.84949,0.69145 0.43463,0.59267 0.43463,1.12607 0,0.33584 -0.21732,0.51364 z" />
      <path
         id="path18"
         style="font-style:normal;font-variant:normal;font-weight:normal;font-stretch:normal;font-size:19.7556px;line-height:1.25;font-family:'Marker Felt';-inkscape-font-specification:'Marker Felt';stroke-width:0.264583"
         d="m 114.31211,144.62638 q -0.27658,0.3556 -0.92851,0.37535 -0.55316,0.0198 -1.08656,0.0198 -0.25682,2.05458 -0.96802,3.73381 -0.75072,1.73849 -1.60021,2.09409 -0.13829,0.0593 -0.31609,0.0593 -0.79022,0 -1.79776,-0.889 -1.10631,-0.98778 -1.81751,-2.50896 -0.80998,-1.81752 -0.80998,-3.91161 0.0198,-3.45723 0.96802,-6.10448 1.12607,-3.1609 3.06212,-3.18066 1.44216,-0.0198 2.35092,1.81752 0.69144,1.36314 0.96802,3.5165 0.31609,0.39511 0.31609,0.86924 0,0.49389 -0.31609,0.80998 -0.31609,0.29634 -0.79022,0.29634 -0.5334,0 -1.14583,-0.25683 -0.59266,-0.27657 -0.79022,-0.57291 -0.11853,-0.1778 -0.11853,-0.37535 0,0.0988 0.15804,-0.77047 -0.27658,-2.29165 -0.63218,-2.29165 -0.31609,0 -0.80998,2.17311 -0.5334,2.2719 -0.5334,4.03015 0,1.2446 0.39511,2.82505 0.41487,1.56069 0.7112,1.56069 0.27658,0 0.63218,-0.84949 0.3556,-0.84949 0.47414,-1.71874 -0.47414,-0.21731 -0.94827,-0.75071 -0.5334,-0.59267 -0.5334,-1.08656 0,-0.31609 0.27658,-0.5334 0.27658,-0.23707 0.92851,-0.25682 1.75825,-0.0395 1.93605,-0.0593 0.29633,-0.13829 0.61242,-0.27658 0.33585,-0.15804 0.59267,-0.15804 0.61242,0 1.18534,0.55315 0.59266,0.55316 0.59266,1.16558 0,0.37536 -0.21731,0.65194 z" />
      <path
         id="path20"
         style="font-style:normal;font-variant:normal;font-weight:normal;font-stretch:normal;font-size:19.7556px;line-height:1.25;font-family:'Marker Felt';-inkscape-font-specification:'Marker Felt';stroke-width:0.264583"
         d="m 119.2177,150.27648 q -0.1778,0.49389 -1.02729,0.49389 -0.23707,0 -0.51365,-0.0395 -1.61996,-0.25682 -1.89654,-0.96803 -0.0593,-0.13829 -0.0593,-0.27657 0,-0.41487 0.45438,-0.82974 -0.079,-2.96334 -0.35561,-12.09043 0.0198,-0.25682 -0.13828,-0.59266 -0.15805,-0.35561 -0.15805,-0.51365 0,-0.3556 0.45438,-0.75071 0.31609,-0.27658 0.889,-0.27658 0.65194,0 1.38289,0.33584 0.86925,0.41487 0.86925,1.00754 0,0.13829 -0.41487,1.0668 l 0.19756,11.9719 q 0,0.23706 0.1778,0.61242 0.1778,0.3556 0.1778,0.57291 0,0.13829 -0.0395,0.27658 z" />
      <path
         id="path22"
         style="font-style:normal;font-variant:normal;font-weight:normal;font-stretch:normal;font-size:19.7556px;line-height:1.25;font-family:'Marker Felt';-inkscape-font-specification:'Marker Felt';stroke-width:0.264583"
         d="m 129.62764,147.15509 q 0,1.54094 -0.98778,2.70652 -0.96802,1.14583 -2.41018,1.14583 -2.90408,0 -4.26721,-2.76579 -1.48167,-0.96802 -1.48167,-1.63971 0,-0.33585 0.41487,-0.55316 0.80998,-0.43462 1.48167,-0.43462 1.46191,0 1.9558,1.73849 0.23707,0.47414 0.49389,0.94827 0.25682,0.47413 0.69145,0.47413 1.16558,0 1.16558,-1.65947 0,-1.48167 -0.5334,-1.99531 -0.23707,-0.21731 -1.89654,-0.90876 -1.32363,-0.55316 -2.13361,-1.89654 -0.73095,-1.22484 -0.75071,-2.54847 -0.0198,-2.1336 1.0668,-3.79307 1.14583,-1.77801 2.84481,-1.77801 1.97556,0 2.88432,1.58045 0.59266,0.98778 0.67169,2.44969 0.21731,0.75072 0.21731,1.36314 0,0.39511 -0.0988,0.65193 -0.29633,0.73096 -1.16558,0.73096 -0.65193,0 -1.18534,-0.47413 -0.59266,-0.51365 -0.73095,-1.44216 -0.0593,-0.31609 0.11853,-0.63218 0.19756,-0.31609 0.19756,-0.3556 0,-0.0395 -0.0395,-0.079 0.0198,-0.0988 0.0198,-0.19756 0,-0.59267 -0.69145,-0.55316 -0.67169,0.0395 -1.04704,0.88901 -0.33585,0.73095 -0.29634,1.67922 0.0593,1.67923 2.21263,2.68676 1.69898,0.79023 2.35092,1.5607 0.92851,1.10631 0.92851,3.10162 z" />
      <path
         id="path24"
         style="font-style:normal;font-variant:normal;font-weight:normal;font-stretch:normal;font-size:19.7556px;line-height:1.25;font-family:'Marker Felt';-inkscape-font-specification:'Marker Felt';stroke-width:0.264583"
         d="m 139.22701,136.80316 q -0.21731,0.41487 -0.92851,0.41487 -0.92852,0 -1.08656,0.0593 -0.73096,0.31609 -1.69898,0.71121 -0.0593,1.50142 -0.0593,3.29918 0,3.65479 0.21731,7.48737 0,0.27658 0.19756,0.73096 0.21731,0.43462 0.21731,0.63218 0,0.25682 -0.1778,0.47413 -0.43463,0.59267 -1.30387,0.59267 -0.75071,0 -1.44216,-0.41486 -0.67169,-0.39512 -0.77047,-0.94827 -0.0593,-0.29634 0.29634,-0.67169 0.37535,-0.37536 0.37535,-0.71121 -0.13829,-3.93136 -0.13829,-6.87494 0,-1.77801 0.0593,-2.84481 -0.0198,0 -0.55316,0.19756 -0.3556,0.13828 -0.57291,0.13828 -0.31609,0 -0.57291,-0.21731 -0.63218,-0.5334 -0.79023,-0.7112 -0.31609,-0.3556 -0.31609,-0.75071 0,-0.13829 0.0395,-0.31609 0.0593,-0.27658 2.88431,-1.12607 3.04237,-0.92851 3.27943,-1.08656 0.21731,-0.079 0.47414,-0.3556 0.27658,-0.27658 0.59266,-0.31609 0.43463,-0.0395 1.14583,0.57291 0.79022,0.69145 0.79022,1.44216 0,0.29634 -0.15804,0.59267 z" />
      <path
         id="path26"
         style="font-style:normal;font-variant:normal;font-weight:normal;font-stretch:normal;font-size:19.7556px;line-height:1.25;font-family:'Marker Felt';-inkscape-font-specification:'Marker Felt';stroke-width:0.264583"
         d="m 147.57314,136.56609 q -0.45438,0.37536 -1.16559,0.37536 -0.29633,0 -0.69144,-0.0593 -0.57291,0.1778 -1.02729,0.3556 -1.10632,0.41487 -1.46192,0.71121 -0.11853,2.05458 0,4.70183 0.11854,-0.079 0.59267,-0.15805 0.23707,-0.41486 0.80998,-0.41486 0.57291,0 1.32363,0.55315 0.77046,0.55316 0.77046,1.08656 0,0.13829 -0.0593,0.27658 -0.23707,0.59267 -0.73096,0.75071 -0.29633,0.0988 -0.86925,0.0593 -0.57291,-0.0593 -0.73095,0.0197 -0.45438,0.21732 -1.10632,0.51365 0,1.778 0.11854,2.29165 0.82973,-0.19756 1.38289,-0.47414 0.0988,-0.13828 0.19755,-0.25682 0.19756,-0.21731 0.71121,-0.1778 0.55315,0.0395 1.14582,0.63218 0.59267,0.59267 0.59267,1.20509 0,0.5334 -0.45438,0.79023 -0.45438,0.25682 -1.52118,0.1778 l -1.85703,0.92851 q -0.11853,0.0593 -0.51364,0.39511 -0.29634,0.25682 -0.5334,0.25682 -0.079,0 -0.1778,-0.0198 -1.04705,-0.31609 -1.89654,-1.63972 -0.0593,-0.0988 -0.0593,-0.23706 0,-0.0593 0.21731,-0.79023 -0.21731,-5.74888 -0.079,-12.24847 -0.13829,-0.19755 -0.13829,-0.39511 0,-0.65194 1.20509,-0.82974 0.25683,-0.0395 0.65194,0.13829 0.25682,0.13829 0.49389,0.25683 l 2.37067,-0.75072 q 0.079,-0.0197 0.45438,-0.23706 0.25682,-0.15805 0.59267,-0.15805 0.15804,0 0.37535,0.0395 0.43463,0.079 0.84949,0.69145 0.43463,0.59267 0.43463,1.12607 0,0.33584 -0.21731,0.51364 z" />
      <path
         id="path28"
         style="font-style:normal;font-variant:normal;font-weight:normal;font-stretch:normal;font-size:19.7556px;line-height:1.25;font-family:'Marker Felt';-inkscape-font-specification:'Marker Felt';stroke-width:0.264583"
         d="m 160.33155,149.13065 q 0.0198,0.11854 0.0198,0.21732 0,0.59266 -0.69145,1.00753 -0.69144,0.39511 -1.44216,0.39511 -0.45438,0 -0.73095,-0.1778 -0.19756,-0.11853 -0.35561,-0.45438 -0.13828,-0.3556 -0.31608,-0.47413 l -4.36599,-2.92383 0.1778,1.81752 q 0.0198,0.13829 0.29633,0.57291 0.29634,0.43462 0.29634,0.73096 0,0.43462 -0.55316,0.80998 -0.33585,0.23706 -0.84949,0.23706 -0.73096,0 -1.36314,-0.39511 -0.69144,-0.39511 -0.82973,-1.00753 -0.0198,-0.11854 -0.0198,-0.19756 0,-0.27658 0.25682,-0.47413 0.27658,-0.21732 0.27658,-0.39512 l -0.63218,-11.26069 q -0.0198,-0.25682 -0.21731,-0.67169 -0.19755,-0.43462 -0.19755,-0.63218 0,-0.51364 0.67169,-0.82973 0.55315,-0.27658 1.12607,-0.27658 0.37535,0 0.65193,0.11853 0.27658,0.0988 0.37536,0.33585 0.0988,0.21731 0.23706,0.21731 0.0198,0.0198 1.2051,-0.43462 1.38289,-0.51365 2.42993,-0.51365 1.52119,0 2.4497,1.0668 0.25682,0.29634 0.25682,0.82974 0,1.44216 -1.65947,4.06965 -1.58045,2.46945 -3.25967,3.95112 l 5.09694,3.55601 q 0.0198,0.0197 0.98778,0.47413 0.55316,0.25683 0.67169,0.7112 z m -5.2945,-12.26822 q -0.43462,0 -1.38289,0.82973 -0.19756,0.15805 -1.46192,1.36314 l -0.0395,3.53625 q 1.22485,-1.34338 2.21263,-2.98309 0.98778,-1.65947 0.98778,-2.37068 0,-0.37535 -0.31609,-0.37535 z" />
    </g>
  </g>
</svg>
