<?xml version="1.0" encoding="UTF-8" standalone="no"?>
<svg
   xmlns:dc="http://purl.org/dc/elements/1.1/"
   xmlns:cc="http://creativecommons.org/ns#"
   xmlns:rdf="http://www.w3.org/1999/02/22-rdf-syntax-ns#"
   xmlns:svg="http://www.w3.org/2000/svg"
   xmlns="http://www.w3.org/2000/svg"
   id="svg8"
   version="1.1"
   viewBox="0 0 129.39288 26.096081"
   height="26.096081mm"
   width="129.39288mm">
  <defs
     id="defs2" />
  <metadata
     id="metadata5">
    <rdf:RDF>
      <cc:Work
         rdf:about="">
        <dc:format>image/svg+xml</dc:format>
        <dc:type
           rdf:resource="http://purl.org/dc/dcmitype/StillImage" />
        <dc:title></dc:title>
      </cc:Work>
    </rdf:RDF>
  </metadata>
  <g
     transform="translate(-59.034111,-141.5737)"
     id="layer1">
    <g
       id="g107">
      <path
         id="path54"
         style="font-style:normal;font-variant:normal;font-weight:normal;font-stretch:normal;font-size:19.7556px;line-height:1.25;font-family:'Marker Felt';-inkscape-font-specification:'Marker Felt';stroke-width:0.388047"
         d="m 76.367287,165.21706 q 0.03046,0.16535 0.03046,0.30314 0,0.82676 -1.066189,1.4055 -1.066187,0.55117 -2.223764,0.55117 -0.700639,0 -1.127114,-0.24803 -0.304624,-0.16536 -0.548324,-0.63385 -0.213239,-0.49605 -0.487402,-0.66141 l -6.732217,-4.07868 0.274162,2.5354 q 0.03046,0.19291 0.456938,0.7992 0.456938,0.60629 0.456938,1.01967 0,0.60629 -0.852951,1.1299 -0.517863,0.33071 -1.309889,0.33071 -1.127114,0 -2.101913,-0.55117 -1.066189,-0.55118 -1.279426,-1.4055 -0.03046,-0.16534 -0.03046,-0.27559 0,-0.38581 0.396013,-0.6614 0.426475,-0.30314 0.426475,-0.55117 l -0.974801,-15.70846 q -0.03045,-0.35828 -0.335087,-0.937 -0.304625,-0.6063 -0.304625,-0.88188 0,-0.71654 1.035725,-1.15747 0.852951,-0.38583 1.736364,-0.38583 0.578789,0 1.005264,0.16536 0.426475,0.13783 0.578787,0.46849 0.152316,0.30315 0.365552,0.30315 0.03045,0.0276 1.858212,-0.60629 2.132377,-0.71653 3.746892,-0.71653 2.345614,0 3.777352,1.48819 0.396014,0.41337 0.396014,1.15745 0,2.01178 -2.558852,5.6771 -2.437002,3.44484 -5.026317,5.51174 l 7.859332,4.96056 q 0.03046,0.0276 1.523126,0.66142 0.85295,0.35826 1.035725,0.99211 z M 68.203329,148.1031 q -0.670175,0 -2.132376,1.15747 -0.304626,0.22046 -2.254227,1.90154 l -0.06093,4.93302 q 1.888676,-1.87401 3.411802,-4.16137 1.523127,-2.31493 1.523127,-3.30704 0,-0.52362 -0.487403,-0.52362 z" />
      <path
         id="path56"
         style="font-style:normal;font-variant:normal;font-weight:normal;font-stretch:normal;font-size:19.7556px;line-height:1.25;font-family:'Marker Felt';-inkscape-font-specification:'Marker Felt';stroke-width:0.264583"
         d="m 79.72668,159.69948 q -0.158045,0.75071 -1.066803,1.6002 -0.138289,0.21732 -1.086558,0.57292 -1.086558,0.41486 -1.876782,0.3556 -1.48167,-0.0988 -2.33116,-1.69898 -0.770469,-1.48167 -0.770469,-3.63503 0,-2.33117 0.869247,-4.08941 0.968024,-1.93605 2.587983,-2.17312 0.31609,-0.0395 0.612424,-0.0395 2.350916,0 2.587983,2.88432 0.118534,1.32362 -1.047046,2.88431 -1.264359,1.71874 -3.239919,2.41019 0.217312,0.79022 0.335845,1.02729 0.276579,0.49389 0.750713,0.49389 0.454379,0 0.968025,-0.3556 0.434623,-0.29634 0.592668,-0.57291 0.07902,-0.0395 0.158044,-0.43463 0.07902,-0.41487 0.414868,-0.59267 0.118534,-0.0593 0.276578,-0.0593 0.474135,0 0.908758,0.47413 0.454379,0.45438 0.355601,0.94827 z m -3.101629,-6.95397 q -0.790224,0 -1.284114,1.12607 -0.651935,1.50142 -0.533402,2.96334 0.928514,-0.29634 1.718738,-1.38289 0.790224,-1.08656 0.790224,-1.93605 0,-0.77047 -0.691446,-0.77047 z" />
      <path
         id="path58"
         style="font-style:normal;font-variant:normal;font-weight:normal;font-stretch:normal;font-size:19.7556px;line-height:1.25;font-family:'Marker Felt';-inkscape-font-specification:'Marker Felt';stroke-width:0.264583"
         d="m 88.035739,159.12657 q 0,1.38289 -0.98778,2.37067 -0.98778,0.96802 -2.331161,0.96802 -0.849491,0 -1.758248,-0.80997 -0.711202,-0.65194 -1.284114,-1.60021 -0.49389,-0.82973 -0.434623,-1.04705 0.217311,-0.49389 1.363136,-0.49389 0.474134,0 0.750713,0.13829 0.474134,0.25683 0.533401,0.65194 0.05927,0.45438 0.197556,0.57291 0.414868,0.63218 0.750713,0.63218 0.256823,0 0.474134,-0.33584 0.237067,-0.35561 0.237067,-0.82974 0,-0.29633 -0.09878,-0.59267 -0.09878,-0.29633 -1.066802,-0.90876 -1.16558,-0.73095 -1.65947,-1.28411 -0.849491,-0.94827 -0.849491,-2.21263 0,-1.48167 0.869246,-2.58798 0.869247,-1.12607 2.212627,-1.12607 1.382892,0 2.11385,1.04705 0.592668,0.84949 0.49389,1.71873 0.217311,0.23707 0.217311,0.79023 0,0.59267 -0.434623,1.00753 -0.434623,0.41487 -0.889002,0.41487 -0.67169,0 -1.16558,-0.889 -0.13829,-0.23707 -0.13829,-0.63218 0,-0.1778 0.01976,-0.49389 0.03951,-0.33584 0.03951,-0.47413 0,-0.51365 -0.375356,-0.51365 -0.572913,0 -0.572913,1.12607 0,1.14582 0.750713,1.83727 0.296334,0.27658 1.284114,0.79022 0.849491,0.43463 1.205092,0.88901 0.533401,0.69144 0.533401,1.87678 z" />
      <path
         id="path60"
         style="font-style:normal;font-variant:normal;font-weight:normal;font-stretch:normal;font-size:19.7556px;line-height:1.25;font-family:'Marker Felt';-inkscape-font-specification:'Marker Felt';stroke-width:0.264583"
         d="m 96.714926,159.69948 q -0.158045,0.75071 -1.066803,1.6002 -0.138289,0.21732 -1.086558,0.57292 -1.086558,0.41486 -1.876782,0.3556 -1.48167,-0.0988 -2.33116,-1.69898 -0.770469,-1.48167 -0.770469,-3.63503 0,-2.33117 0.869247,-4.08941 0.968024,-1.93605 2.587983,-2.17312 0.31609,-0.0395 0.612424,-0.0395 2.350916,0 2.587983,2.88432 0.118534,1.32362 -1.047046,2.88431 -1.264359,1.71874 -3.239919,2.41019 0.217312,0.79022 0.335845,1.02729 0.276579,0.49389 0.750713,0.49389 0.454379,0 0.968025,-0.3556 0.434623,-0.29634 0.592668,-0.57291 0.07902,-0.0395 0.158044,-0.43463 0.07902,-0.41487 0.414868,-0.59267 0.118534,-0.0593 0.276578,-0.0593 0.474135,0 0.908758,0.47413 0.454379,0.45438 0.355601,0.94827 z m -3.101629,-6.95397 q -0.790224,0 -1.284114,1.12607 -0.651935,1.50142 -0.533402,2.96334 0.928514,-0.29634 1.718738,-1.38289 0.790224,-1.08656 0.790224,-1.93605 0,-0.77047 -0.691446,-0.77047 z" />
      <path
         id="path62"
         style="font-style:normal;font-variant:normal;font-weight:normal;font-stretch:normal;font-size:19.7556px;line-height:1.25;font-family:'Marker Felt';-inkscape-font-specification:'Marker Felt';stroke-width:0.264583"
         d="m 104.96196,152.80478 q -0.15804,0 -0.49389,-0.11854 -0.33584,-0.13829 -0.51364,-0.13829 -0.13829,0 -0.27658,0.0593 l -0.73096,0.37536 v 6.75641 q 0,0.37536 0.39511,0.96803 0.41487,0.59266 0.33585,0.94827 -0.0988,0.43462 -0.59267,0.69144 -0.47413,0.25682 -1.02729,0.25682 -1.04705,0 -1.44216,-0.92851 -0.11853,-0.27658 -0.13829,-1.75825 -0.0198,-0.98778 0.0198,-3.08187 0.0395,-2.37067 0.0395,-3.00285 -0.11853,0.0395 -0.39511,0.27658 -0.276578,0.21731 -0.553156,0.21731 -0.217312,0 -0.553157,-0.11854 -1.382892,-0.47413 -1.382892,-0.96802 0,-0.11853 0.05927,-0.25682 0.138289,-0.31609 0.513646,-0.3556 0.572912,-0.079 0.691446,-0.13829 0.454378,-0.1778 1.659473,-0.84949 v -1.71874 q 0,-0.19756 -0.11854,-0.51365 -0.0988,-0.33584 -0.0988,-0.49389 0,-0.1778 0.0988,-0.33584 0.51365,-0.79023 1.38289,-0.79023 1.00754,0 1.42241,0.79023 0.15804,0.31609 0.15804,0.51364 0,0.23707 -0.23706,0.49389 -0.23707,0.25683 -0.23707,0.47414 v 0.96802 q 0.3556,-0.15804 0.79022,-0.5334 0.33585,-0.27658 0.57291,-0.27658 0.0988,0 0.21732,0.0395 1.2446,0.33585 1.2446,1.50143 0,0.37536 -0.23707,0.7112 -0.21731,0.33585 -0.57291,0.33585 z" />
      <path
         id="path64"
         style="font-style:normal;font-variant:normal;font-weight:normal;font-stretch:normal;font-size:19.7556px;line-height:1.25;font-family:'Marker Felt';-inkscape-font-specification:'Marker Felt';stroke-width:0.407885"
         d="m 126.03295,143.73006 q 0.50973,0.60051 0.50973,1.61044 0,2.37471 -3.22824,7.31522 -3.36415,5.21346 -5.50497,5.21346 -0.54371,0 -0.81557,-0.49133 -0.10205,0.62779 -0.10205,1.58314 0,1.63775 0.23784,3.76679 0,0.19106 0.16996,0.62779 0.16994,0.43673 0.16994,0.6551 0,0.51861 -0.8835,0.87346 -0.40779,0.16378 -1.08741,0.16378 -1.12139,0 -2.10685,-0.40945 -1.12138,-0.43672 -1.29128,-1.14641 -0.0341,-0.19107 -0.0341,-0.32756 0,-0.40941 0.33982,-0.73697 0.37379,-0.35483 0.37379,-0.46402 l -0.61166,-17.68752 q 0,-0.0819 -0.10205,-0.32756 -0.10205,-0.24566 -0.10205,-0.38214 0,-0.49132 0.88352,-0.76429 0.67964,-0.21836 1.42722,-0.21836 0.23785,0 1.90296,0.16378 0.20388,0 2.0049,-0.5732 1.83499,-0.60051 3.22821,-0.60051 2.71853,0 4.62147,2.15636 z m -5.06321,1.09182 q -0.81557,0 -2.10686,0.70968 -1.25731,0.68239 -2.20877,1.58315 l 0.13588,6.27798 q 1.49519,-0.90075 3.22821,-3.60302 1.76704,-2.72954 1.76704,-4.14893 0,-0.81886 -0.81554,-0.81886 z" />
      <path
         id="path66"
         style="font-style:normal;font-variant:normal;font-weight:normal;font-stretch:normal;font-size:19.7556px;line-height:1.25;font-family:'Marker Felt';-inkscape-font-specification:'Marker Felt';stroke-width:0.264583"
         d="m 132.11397,160.94408 q -0.29633,0.96803 -1.46191,0.96803 -0.39511,0 -0.63218,-0.13829 -0.31609,-0.21731 -0.43462,-0.86925 -0.23707,-1.12607 -0.47414,-1.75825 -0.0593,1.08656 -1.18533,2.21263 -1.12607,1.10631 -2.2719,1.10631 -1.44216,0 -1.99531,-1.91629 -0.19756,-0.7112 -0.19756,-1.34338 0,-1.83727 1.87678,-3.14114 1.54094,-0.90876 3.10163,-1.79776 0.079,-0.33584 0.079,-0.65193 0,-0.61243 -0.33584,-0.71121 -0.33585,-0.11853 -0.57291,-0.11853 -0.41487,0 -0.69145,0.27658 -0.25682,0.25682 -0.49389,0.49389 -0.23707,0.15804 -0.61242,0.73096 -0.29634,0.45438 -0.65194,0.49389 -0.51364,0.0593 -0.92851,-0.3556 -0.41487,-0.41487 -0.41487,-0.96803 0,-0.31609 0.15805,-0.57291 0.45438,-0.75071 1.36313,-1.30387 1.3829,-0.82974 3.45723,-0.82974 1.32363,0 1.81752,1.26436 0.31609,0.84949 0.47413,3.18065 0.1778,2.82505 0.43463,4.12892 0.0395,0.25683 0.33584,0.65194 0.29634,0.39511 0.29634,0.69145 0,0.13828 -0.0395,0.27657 z m -3.43747,-4.85987 q -0.59267,0.31609 -1.18534,0.65193 -0.57291,0.33585 -1.0668,0.889 -0.7112,0.80998 -0.7112,1.38289 0,0.47414 0.3556,0.98778 0.19756,0.27658 0.43462,0.27658 0.51365,0 1.10632,-1.14582 0.61242,-1.14583 1.0668,-3.04236 z" />
      <path
         id="path68"
         style="font-style:normal;font-variant:normal;font-weight:normal;font-stretch:normal;font-size:19.7556px;line-height:1.25;font-family:'Marker Felt';-inkscape-font-specification:'Marker Felt';stroke-width:0.264583"
         d="m 140.08567,159.12657 q 0,1.38289 -0.98778,2.37067 -0.98778,0.96802 -2.33116,0.96802 -0.8495,0 -1.75825,-0.80997 -0.7112,-0.65194 -1.28412,-1.60021 -0.49389,-0.82973 -0.43462,-1.04705 0.21731,-0.49389 1.36314,-0.49389 0.47413,0 0.75071,0.13829 0.47413,0.25683 0.5334,0.65194 0.0593,0.45438 0.19756,0.57291 0.41486,0.63218 0.75071,0.63218 0.25682,0 0.47413,-0.33584 0.23707,-0.35561 0.23707,-0.82974 0,-0.29633 -0.0988,-0.59267 -0.0988,-0.29633 -1.0668,-0.90876 -1.16558,-0.73095 -1.65947,-1.28411 -0.84949,-0.94827 -0.84949,-2.21263 0,-1.48167 0.86925,-2.58798 0.86924,-1.12607 2.21262,-1.12607 1.38289,0 2.11385,1.04705 0.59267,0.84949 0.49389,1.71873 0.21731,0.23707 0.21731,0.79023 0,0.59267 -0.43462,1.00753 -0.43462,0.41487 -0.889,0.41487 -0.67169,0 -1.16558,-0.889 -0.13829,-0.23707 -0.13829,-0.63218 0,-0.1778 0.0197,-0.49389 0.0395,-0.33584 0.0395,-0.47413 0,-0.51365 -0.37536,-0.51365 -0.57291,0 -0.57291,1.12607 0,1.14582 0.75071,1.83727 0.29633,0.27658 1.28411,0.79022 0.84949,0.43463 1.2051,0.88901 0.5334,0.69144 0.5334,1.87678 z" />
      <path
         id="path70"
         style="font-style:normal;font-variant:normal;font-weight:normal;font-stretch:normal;font-size:19.7556px;line-height:1.25;font-family:'Marker Felt';-inkscape-font-specification:'Marker Felt';stroke-width:0.264583"
         d="m 148.41483,159.12657 q 0,1.38289 -0.98778,2.37067 -0.98778,0.96802 -2.33116,0.96802 -0.84949,0 -1.75825,-0.80997 -0.7112,-0.65194 -1.28411,-1.60021 -0.49389,-0.82973 -0.43463,-1.04705 0.21731,-0.49389 1.36314,-0.49389 0.47413,0 0.75071,0.13829 0.47414,0.25683 0.5334,0.65194 0.0593,0.45438 0.19756,0.57291 0.41487,0.63218 0.75071,0.63218 0.25682,0 0.47414,-0.33584 0.23706,-0.35561 0.23706,-0.82974 0,-0.29633 -0.0988,-0.59267 -0.0988,-0.29633 -1.06681,-0.90876 -1.16558,-0.73095 -1.65947,-1.28411 -0.84949,-0.94827 -0.84949,-2.21263 0,-1.48167 0.86925,-2.58798 0.86924,-1.12607 2.21263,-1.12607 1.38289,0 2.11384,1.04705 0.59267,0.84949 0.49389,1.71873 0.21732,0.23707 0.21732,0.79023 0,0.59267 -0.43463,1.00753 -0.43462,0.41487 -0.889,0.41487 -0.67169,0 -1.16558,-0.889 -0.13829,-0.23707 -0.13829,-0.63218 0,-0.1778 0.0198,-0.49389 0.0395,-0.33584 0.0395,-0.47413 0,-0.51365 -0.37536,-0.51365 -0.57291,0 -0.57291,1.12607 0,1.14582 0.75071,1.83727 0.29634,0.27658 1.28412,0.79022 0.84949,0.43463 1.20509,0.88901 0.5334,0.69144 0.5334,1.87678 z" />
      <path
         id="path72"
         style="font-style:normal;font-variant:normal;font-weight:normal;font-stretch:normal;font-size:19.7556px;line-height:1.25;font-family:'Marker Felt';-inkscape-font-specification:'Marker Felt';stroke-width:0.264583"
         d="m 164.20511,150.98726 q 0.0593,0.15805 0.0593,0.29634 0,0.31608 -0.3556,0.77046 -0.43462,0.5334 -0.5334,0.82974 l -2.17312,6.55886 q -0.0988,0.31609 -0.0988,0.75071 0,0.13829 0,0.43462 0.0198,0.27658 0.0198,0.41487 0,0.73096 -0.49389,1.08656 -0.49389,0.3556 -1.12607,0.3556 -0.94827,0 -1.58044,-0.7112 -0.31609,-0.3556 -0.31609,-0.80998 0,-0.67169 -0.0395,-0.84949 l -1.18533,-4.38574 -1.14583,3.95112 q -0.0593,0.21731 -0.0988,0.82973 -0.0395,0.49389 -0.21732,0.79022 -0.75071,1.22485 -1.83727,1.22485 -0.37535,0 -0.69144,-0.21731 -0.39511,-0.25682 -0.47414,-0.79022 -0.079,-0.53341 -0.15804,-1.04705 l -1.73849,-6.75642 q -0.0593,-0.25682 -0.35561,-0.94826 -0.23706,-0.53341 -0.23706,-0.90876 0,-0.25683 0.0988,-0.51365 0.1778,-0.55315 1.4224,-0.55315 0.69144,0 0.92851,0.19755 0.29634,0.25682 0.31609,0.82974 0.0198,0.86924 0.0395,0.94827 l 1.18534,4.74134 1.65947,-4.85988 q 0.0395,-0.13829 0.0395,-0.27658 0,-0.11853 -0.0593,-0.33584 -0.0395,-0.23707 -0.0395,-0.3556 0,-0.43463 0.47414,-0.67169 0.39511,-0.21731 0.86924,-0.21731 0.65194,0 1.08656,0.31608 0.55316,0.39512 0.61242,1.0273 0.0593,0.61242 0.0988,1.22484 l 1.18534,4.74135 1.89654,-5.68962 q 0.0395,-0.11853 0.0395,-0.25682 0,-0.15804 -0.0593,-0.41487 -0.0593,-0.27657 -0.0593,-0.41486 0,-0.1778 0.079,-0.33585 0.29633,-0.5334 1.56069,-0.5334 1.18533,0 1.40265,0.5334 z" />
      <path
         id="path74"
         style="font-style:normal;font-variant:normal;font-weight:normal;font-stretch:normal;font-size:19.7556px;line-height:1.25;font-family:'Marker Felt';-inkscape-font-specification:'Marker Felt';stroke-width:0.264583"
         d="m 170.64542,151.57993 q 1.32363,1.34338 1.32363,4.52403 0,2.46945 -0.92852,4.20794 -1.04704,1.95581 -2.88431,1.95581 -1.81752,0 -2.8053,-1.75825 -0.86925,-1.54094 -0.86925,-3.91161 0,-2.09409 0.67169,-3.75356 0.71121,-1.77801 1.81752,-2.0941 0.57291,-0.15804 1.18534,-0.15804 1.52118,0 2.4892,0.98778 z m -2.25214,0.94827 q -0.65193,-0.0593 -1.12607,1.22485 -0.41486,1.16558 -0.41486,2.44969 0,1.85703 0.15804,2.62749 0.27658,1.3829 1.14583,1.52119 0.55315,0.079 1.02729,-1.52119 0.45438,-1.54093 0.45438,-3.29918 0,-2.88432 -1.24461,-3.00285 z" />
      <path
         id="path76"
         style="font-style:normal;font-variant:normal;font-weight:normal;font-stretch:normal;font-size:19.7556px;line-height:1.25;font-family:'Marker Felt';-inkscape-font-specification:'Marker Felt';stroke-width:0.264583"
         d="m 181.06034,151.69846 q -0.079,0.41487 -0.75072,0.57292 -0.79022,0.19755 -1.00753,0.45437 l -3.22017,3.71406 v 3.00285 q 0,0.43462 0.23707,0.889 0.25682,0.43462 0.25682,0.67169 0,0.23707 -0.13828,0.5334 -0.33585,0.75071 -1.36314,0.75071 -0.7112,0 -1.12607,-0.45437 -0.27658,-0.29634 -0.27658,-0.75072 0,-0.15804 0.0395,-0.51364 0.0395,-0.3556 0.0395,-0.57292 v -7.38859 q 0,-0.1778 -0.15804,-0.43462 -0.15805,-0.25683 -0.15805,-0.41487 0,-0.11853 0.079,-0.27658 0.25682,-0.47413 1.6002,-0.47413 1.04705,0 1.18534,0.49389 0.0593,0.19755 0.0593,0.33584 0,0.21731 -0.15804,0.33585 -0.15805,0.11853 -0.15805,0.23706 l 0.0395,0.71121 1.69899,-1.79776 q 0.29633,-0.33585 0.61242,-0.67169 0.33585,-0.33585 0.77047,-0.37536 0.67169,-0.0593 1.28411,0.29633 0.63218,0.3556 0.63218,0.92852 0,0.0988 -0.0198,0.19755 z" />
      <path
         id="path78"
         style="font-style:normal;font-variant:normal;font-weight:normal;font-stretch:normal;font-size:19.7556px;line-height:1.25;font-family:'Marker Felt';-inkscape-font-specification:'Marker Felt';stroke-width:0.264583"
         d="m 188.34798,161.65529 q -0.23707,0.5334 -1.46191,0.5334 -0.77047,0 -1.0273,-0.31609 -0.0988,-0.0988 -0.0988,-0.27658 0,-0.13829 0.0988,-0.43462 0.0988,-0.29634 0.11854,-0.45438 -0.90876,1.28411 -2.13361,1.28411 -1.63971,0 -2.39042,-1.85703 -0.57292,-1.4224 -0.57292,-3.69429 0,-2.0941 0.88901,-3.81283 0.98778,-1.87679 2.42993,-1.87679 0.80998,0 1.65947,1.30387 v -2.54847 q 0,-0.31609 -0.25682,-0.80998 -0.25682,-0.49389 -0.25682,-0.75071 0,-0.19756 0.0988,-0.39511 0.41486,-0.88901 1.61996,-0.88901 0.98778,0 1.22484,0.71121 0.079,0.23706 0.079,0.45438 0,0.21731 -0.13829,0.59266 -0.11854,0.3556 -0.11854,0.61243 v 11.26069 q 0,0.21731 0.15805,0.5334 0.15804,0.29633 0.15804,0.49389 0,0.15804 -0.079,0.33585 z m -2.72627,-5.21548 q 0,-0.90876 -0.37536,-2.13361 -0.41487,-1.30387 -0.80998,-1.30387 -0.45438,0 -0.73096,1.20509 -0.21731,0.98778 -0.21731,2.23239 0,0.21731 -0.0198,0.7112 0,0.47413 0,0.73096 0,2.23238 0.96802,2.23238 0.45438,0 0.82974,-1.28412 0.3556,-1.18533 0.3556,-2.39042 z" />
    </g>
  </g>
</svg>
